<svg width="108" height="32" viewBox="0 0 108 32" fill="none" xmlns="http://www.w3.org/2000/svg">
<path d="M13.944 6.596H18.312V26H13.944V17.768H6.608V26H2.24V6.596H6.608V14.016H13.944V6.596ZM27.9545 6.596C28.2905 7.212 28.6732 7.97733 29.1025 8.892C29.5505 9.788 30.0078 10.768 30.4745 11.832C30.9598 12.8773 31.4358 13.9507 31.9025 15.052C32.3692 16.1533 32.8078 17.1893 33.2185 18.16C33.6292 17.1893 34.0678 16.1533 34.5345 15.052C35.0012 13.9507 35.4678 12.8773 35.9345 11.832C36.4198 10.768 36.8772 9.788 37.3065 8.892C37.7545 7.97733 38.1465 7.212 38.4825 6.596H42.4585C42.6452 7.884 42.8132 9.33067 42.9625 10.936C43.1305 12.5227 43.2705 14.184 43.3825 15.92C43.5132 17.6373 43.6252 19.364 43.7185 21.1C43.8305 22.836 43.9238 24.4693 43.9985 26H39.7425C39.6865 24.1147 39.6118 22.0613 39.5185 19.84C39.4252 17.6187 39.2852 15.3787 39.0985 13.12C38.7625 13.904 38.3892 14.772 37.9785 15.724C37.5678 16.676 37.1572 17.628 36.7465 18.58C36.3545 19.532 35.9718 20.4467 35.5985 21.324C35.2252 22.1827 34.9078 22.92 34.6465 23.536H31.5945C31.3332 22.92 31.0158 22.1827 30.6425 21.324C30.2692 20.4467 29.8772 19.532 29.4665 18.58C29.0745 17.628 28.6732 16.676 28.2625 15.724C27.8518 14.772 27.4785 13.904 27.1425 13.12C26.9558 15.3787 26.8158 17.6187 26.7225 19.84C26.6292 22.0613 26.5545 24.1147 26.4985 26H22.2425C22.3172 24.4693 22.4012 22.836 22.4945 21.1C22.6065 19.364 22.7185 17.6373 22.8305 15.92C22.9612 14.184 23.1012 12.5227 23.2505 10.936C23.4185 9.33067 23.5958 7.884 23.7825 6.596H27.9545Z" fill="white"/>
<path d="M53.048 23.788C53.048 24.628 52.7773 25.272 52.236 25.72C51.7133 26.1493 51.116 26.364 50.444 26.364C49.772 26.364 49.1653 26.1493 48.624 25.72C48.1013 25.272 47.84 24.628 47.84 23.788C47.84 22.948 48.1013 22.3133 48.624 21.884C49.1653 21.436 49.772 21.212 50.444 21.212C51.116 21.212 51.7133 21.436 52.236 21.884C52.7773 22.3133 53.048 22.948 53.048 23.788ZM54.303 18.636C54.303 17.572 54.471 16.5733 54.807 15.64C55.1616 14.688 55.6656 13.8667 56.319 13.176C56.9723 12.4667 57.7656 11.9067 58.699 11.496C59.6323 11.0853 60.6963 10.88 61.891 10.88C62.675 10.88 63.3936 10.9547 64.047 11.104C64.7003 11.2347 65.335 11.4307 65.951 11.692L65.083 15.024C64.691 14.8747 64.2616 14.744 63.795 14.632C63.3283 14.52 62.8056 14.464 62.227 14.464C60.995 14.464 60.071 14.8467 59.455 15.612C58.8576 16.3773 58.559 17.3853 58.559 18.636C58.559 19.9613 58.839 20.988 59.399 21.716C59.9776 22.444 60.9763 22.808 62.395 22.808C62.899 22.808 63.4403 22.7613 64.019 22.668C64.5976 22.5747 65.1296 22.4253 65.615 22.22L66.203 25.636C65.7176 25.8413 65.111 26.0187 64.383 26.168C63.655 26.3173 62.8523 26.392 61.975 26.392C60.631 26.392 59.4736 26.196 58.503 25.804C57.5323 25.3933 56.7296 24.8427 56.095 24.152C55.479 23.4613 55.0216 22.6493 54.723 21.716C54.443 20.764 54.303 19.7373 54.303 18.636ZM82.068 18.608C82.068 19.7653 81.9 20.8293 81.564 21.8C81.228 22.752 80.7427 23.5733 80.108 24.264C79.4734 24.936 78.708 25.4587 77.812 25.832C76.9347 26.2053 75.9454 26.392 74.844 26.392C73.7614 26.392 72.772 26.2053 71.876 25.832C70.9987 25.4587 70.2427 24.936 69.608 24.264C68.9734 23.5733 68.4787 22.752 68.124 21.8C67.7694 20.8293 67.592 19.7653 67.592 18.608C67.592 17.4507 67.7694 16.396 68.124 15.444C68.4974 14.492 69.0014 13.68 69.636 13.008C70.2894 12.336 71.0547 11.8133 71.932 11.44C72.828 11.0667 73.7987 10.88 74.844 10.88C75.908 10.88 76.8787 11.0667 77.756 11.44C78.652 11.8133 79.4174 12.336 80.052 13.008C80.6867 13.68 81.1814 14.492 81.536 15.444C81.8907 16.396 82.068 17.4507 82.068 18.608ZM77.812 18.608C77.812 17.32 77.5507 16.312 77.028 15.584C76.524 14.8373 75.796 14.464 74.844 14.464C73.892 14.464 73.1547 14.8373 72.632 15.584C72.1094 16.312 71.848 17.32 71.848 18.608C71.848 19.896 72.1094 20.9227 72.632 21.688C73.1547 22.4347 73.892 22.808 74.844 22.808C75.796 22.808 76.524 22.4347 77.028 21.688C77.5507 20.9227 77.812 19.896 77.812 18.608ZM93.3918 18.188C93.3918 16.844 93.2145 15.892 92.8598 15.332C92.5238 14.772 91.9358 14.492 91.0958 14.492C90.8345 14.492 90.5638 14.5107 90.2838 14.548C90.0038 14.5667 89.7332 14.5947 89.4718 14.632V26H85.2998V11.776C85.6545 11.6827 86.0652 11.5893 86.5318 11.496C87.0172 11.384 87.5212 11.2907 88.0438 11.216C88.5852 11.1227 89.1358 11.0573 89.6958 11.02C90.2558 10.964 90.8065 10.936 91.3478 10.936C92.4118 10.936 93.2705 11.076 93.9238 11.356C94.5958 11.6173 95.1465 11.9347 95.5758 12.308C96.1732 11.8787 96.8545 11.5427 97.6198 11.3C98.4038 11.0573 99.1225 10.936 99.7758 10.936C100.952 10.936 101.913 11.104 102.66 11.44C103.425 11.7573 104.032 12.2147 104.48 12.812C104.928 13.4093 105.236 14.1187 105.404 14.94C105.572 15.7613 105.656 16.676 105.656 17.684V26H101.484V18.188C101.484 16.844 101.307 15.892 100.952 15.332C100.616 14.772 100.028 14.492 99.1878 14.492C98.9638 14.492 98.6465 14.548 98.2358 14.66C97.8438 14.772 97.5172 14.912 97.2558 15.08C97.3865 15.5093 97.4705 15.9667 97.5078 16.452C97.5452 16.9187 97.5638 17.4227 97.5638 17.964V26H93.3918V18.188Z" fill="#6B7280"/>
</svg>
