<svg width="85" height="25" viewBox="0 0 85 25" fill="none" xmlns="http://www.w3.org/2000/svg">
<path d="M10.956 5.754H14.388V21H10.956V14.532H5.192V21H1.76V5.754H5.192V11.584H10.956V5.754ZM21.9642 5.754C22.2283 6.238 22.5289 6.83933 22.8663 7.558C23.2183 8.262 23.5776 9.032 23.9443 9.868C24.3256 10.6893 24.6996 11.5327 25.0663 12.398C25.4329 13.2633 25.7776 14.0773 26.1003 14.84C26.4229 14.0773 26.7676 13.2633 27.1343 12.398C27.5009 11.5327 27.8676 10.6893 28.2343 9.868C28.6156 9.032 28.9749 8.262 29.3123 7.558C29.6643 6.83933 29.9723 6.238 30.2363 5.754H33.3603C33.5069 6.766 33.6389 7.90267 33.7563 9.164C33.8883 10.4107 33.9983 11.716 34.0863 13.08C34.1889 14.4293 34.2769 15.786 34.3503 17.15C34.4383 18.514 34.5116 19.7973 34.5703 21H31.2263C31.1823 19.5187 31.1236 17.9053 31.0503 16.16C30.9769 14.4147 30.8669 12.6547 30.7203 10.88C30.4563 11.496 30.1629 12.178 29.8403 12.926C29.5176 13.674 29.1949 14.422 28.8723 15.17C28.5643 15.918 28.2636 16.6367 27.9703 17.326C27.6769 18.0007 27.4276 18.58 27.2223 19.064H24.8243C24.6189 18.58 24.3696 18.0007 24.0763 17.326C23.7829 16.6367 23.4749 15.918 23.1523 15.17C22.8443 14.422 22.5289 13.674 22.2063 12.926C21.8836 12.178 21.5903 11.496 21.3263 10.88C21.1796 12.6547 21.0696 14.4147 20.9963 16.16C20.9229 17.9053 20.8643 19.5187 20.8203 21H17.4763C17.5349 19.7973 17.6009 18.514 17.6743 17.15C17.7623 15.786 17.8503 14.4293 17.9383 13.08C18.0409 11.716 18.1509 10.4107 18.2683 9.164C18.4003 7.90267 18.5396 6.766 18.6863 5.754H21.9642Z" fill="#111827"/>
<path d="M41.752 19.262C41.752 19.922 41.5393 20.428 41.114 20.78C40.7033 21.1173 40.234 21.286 39.706 21.286C39.178 21.286 38.7013 21.1173 38.276 20.78C37.8653 20.428 37.66 19.922 37.66 19.262C37.66 18.602 37.8653 18.1033 38.276 17.766C38.7013 17.414 39.178 17.238 39.706 17.238C40.234 17.238 40.7033 17.414 41.114 17.766C41.5393 18.1033 41.752 18.602 41.752 19.262ZM42.738 15.214C42.738 14.378 42.87 13.5933 43.134 12.86C43.4127 12.112 43.8087 11.4667 44.322 10.924C44.8354 10.3667 45.4587 9.92667 46.192 9.604C46.9254 9.28133 47.7614 9.12 48.7 9.12C49.316 9.12 49.8807 9.17867 50.394 9.296C50.9074 9.39867 51.406 9.55267 51.89 9.758L51.208 12.376C50.9 12.2587 50.5627 12.156 50.196 12.068C49.8294 11.98 49.4187 11.936 48.964 11.936C47.996 11.936 47.27 12.2367 46.786 12.838C46.3167 13.4393 46.082 14.2313 46.082 15.214C46.082 16.2553 46.302 17.062 46.742 17.634C47.1967 18.206 47.9814 18.492 49.096 18.492C49.492 18.492 49.9174 18.4553 50.372 18.382C50.8267 18.3087 51.2447 18.1913 51.626 18.03L52.088 20.714C51.7067 20.8753 51.23 21.0147 50.658 21.132C50.086 21.2493 49.4554 21.308 48.766 21.308C47.71 21.308 46.8007 21.154 46.038 20.846C45.2754 20.5233 44.6447 20.0907 44.146 19.548C43.662 19.0053 43.3027 18.3673 43.068 17.634C42.848 16.886 42.738 16.0793 42.738 15.214ZM64.5535 15.192C64.5535 16.1013 64.4215 16.9373 64.1575 17.7C63.8935 18.448 63.5121 19.0933 63.0135 19.636C62.5148 20.164 61.9135 20.5747 61.2095 20.868C60.5201 21.1613 59.7428 21.308 58.8775 21.308C58.0268 21.308 57.2495 21.1613 56.5455 20.868C55.8561 20.5747 55.2621 20.164 54.7635 19.636C54.2648 19.0933 53.8761 18.448 53.5975 17.7C53.3188 16.9373 53.1795 16.1013 53.1795 15.192C53.1795 14.2827 53.3188 13.454 53.5975 12.706C53.8908 11.958 54.2868 11.32 54.7855 10.792C55.2988 10.264 55.9001 9.85333 56.5895 9.56C57.2935 9.26667 58.0561 9.12 58.8775 9.12C59.7135 9.12 60.4761 9.26667 61.1655 9.56C61.8695 9.85333 62.4708 10.264 62.9695 10.792C63.4681 11.32 63.8568 11.958 64.1355 12.706C64.4141 13.454 64.5535 14.2827 64.5535 15.192ZM61.2095 15.192C61.2095 14.18 61.0041 13.388 60.5935 12.816C60.1975 12.2293 59.6255 11.936 58.8775 11.936C58.1295 11.936 57.5501 12.2293 57.1395 12.816C56.7288 13.388 56.5235 14.18 56.5235 15.192C56.5235 16.204 56.7288 17.0107 57.1395 17.612C57.5501 18.1987 58.1295 18.492 58.8775 18.492C59.6255 18.492 60.1975 18.1987 60.5935 17.612C61.0041 17.0107 61.2095 16.204 61.2095 15.192ZM73.4507 14.862C73.4507 13.806 73.3114 13.058 73.0327 12.618C72.7687 12.178 72.3067 11.958 71.6467 11.958C71.4414 11.958 71.2287 11.9727 71.0087 12.002C70.7887 12.0167 70.5761 12.0387 70.3707 12.068V21H67.0927V9.824C67.3714 9.75067 67.6941 9.67733 68.0607 9.604C68.4421 9.516 68.8381 9.44267 69.2487 9.384C69.6741 9.31067 70.1067 9.25933 70.5467 9.23C70.9867 9.186 71.4194 9.164 71.8447 9.164C72.6807 9.164 73.3554 9.274 73.8687 9.494C74.3967 9.69933 74.8294 9.94867 75.1667 10.242C75.6361 9.90467 76.1714 9.64067 76.7727 9.45C77.3887 9.25933 77.9534 9.164 78.4667 9.164C79.3907 9.164 80.1461 9.296 80.7327 9.56C81.3341 9.80933 81.8107 10.1687 82.1627 10.638C82.5147 11.1073 82.7567 11.6647 82.8887 12.31C83.0207 12.9553 83.0867 13.674 83.0867 14.466V21H79.8087V14.862C79.8087 13.806 79.6694 13.058 79.3907 12.618C79.1267 12.178 78.6647 11.958 78.0047 11.958C77.8287 11.958 77.5794 12.002 77.2567 12.09C76.9487 12.178 76.6921 12.288 76.4867 12.42C76.5894 12.7573 76.6554 13.1167 76.6847 13.498C76.7141 13.8647 76.7287 14.2607 76.7287 14.686V21H73.4507V14.862Z" fill="#6B7280"/>
</svg>
